<svg xmlns="http://www.w3.org/2000/svg" viewBox="0 0 512 512" fill="#FFD700">
  <!-- Book base -->
  <path d="M198 427c-46 12-90 19-133 20V292c43-1 87-8 133-20v155z"/>
  <path d="M314 427c46 12 90 19 133 20V292c-43-1-87-8-133-20v155z"/>
  <path d="M256 378l-53-13V220l53 13 53-13v145l-53 13z"/>
  
  <!-- Branching structure -->
  <path d="M256 220V145c0-6.6-5.4-12-12-12h-2c-6.6 0-12-5.4-12-12v-20c0-6.6 5.4-12 12-12h4c6.6 0 12-5.4 12-12V57c0-6.6-5.4-12-12-12h-24c-6.6 0-12 5.4-12 12v10c0 6.6-5.4 12-12 12h-4c-6.6 0-12 5.4-12 12v30c0 6.6-5.4 12-12 12h-2c-6.6 0-12 5.4-12 12v20c0 6.6 5.4 12 12 12h24c6.6 0 12-5.4 12-12v-10"/>
  
  <path d="M256 220V145c0-6.6 5.4-12 12-12h2c6.6 0 12-5.4 12-12v-20c0-6.6-5.4-12-12-12h-4c-6.6 0-12-5.4-12-12V57c0-6.6 5.4-12 12-12h24c6.6 0 12 5.4 12 12v10c0 6.6 5.4 12 12 12h4c6.6 0 12 5.4 12 12v30c0 6.6 5.4 12 12 12h2c6.6 0 12 5.4 12 12v20c0 6.6-5.4 12-12 12h-24c-6.6 0-12-5.4-12-12v-10"/>
  
  <!-- Node circles -->
  <circle cx="130" cy="210" r="20"/>
  <circle cx="168" cy="145" r="20"/>
  <circle cx="220" cy="87" r="20"/>
  <circle cx="256" cy="45" r="20"/>
  <circle cx="292" cy="87" r="20"/>
  <circle cx="344" cy="145" r="20"/>
  <circle cx="382" cy="210" r="20"/>
</svg> 